<?xml version="1.0" encoding="utf-8"?>
<!-- Generator: Adobe Illustrator 19.1.0, SVG Export Plug-In . SVG Version: 6.00 Build 0)  -->
<svg version="1.1" id="Layer_1" xmlns="http://www.w3.org/2000/svg" xmlns:xlink="http://www.w3.org/1999/xlink" x="0px" y="0px"
	 viewBox="0 0 898.5 546.7" style="enable-background:new 0 0 898.5 546.7;" xml:space="preserve">
<style type="text/css">
	.st0{fill:#7F7F7F;}
	.st1{fill:#FFFFFF;}
</style>
<path id="screen" class="st0" d="M141.1,43.6h622c0,0,15.3,9.3,14.7,23.3c-0.7,14,2.7,408.7-0.7,413.3s-3.3,4.7-3.3,4.7
	s-641.4,0.5-648.1-1.5s-7.2-412.5-3.9-419.8S127.1,43.6,141.1,43.6z"/>
<image style="overflow:visible;" width="495" height="287" id="iw-rpg" xlink:href="../../Desktop/Portfolio/css/images/iw-rpg.png"  transform="matrix(1.1525 0 0 1.1525 168.9222 99.3138)">
</image>
<path id="base" class="st0" d="M875.2,483.4v24.4c0,0-28,17.7-37.3,18c-17.1,0.6-782.1-1.9-780-2c0,0-32-8.7-34-14s0-26.4,0-26.4
	H875.2z"/>
<path id="hole_1" class="st1" d="M380,485.8c0,0,0,10.8,4.9,10.8s121.9,0,121.9,0s4.9-10.5,4.9-10.8
	C511.8,485.6,380,485.8,380,485.8z"/>
<path id="hole_2" class="st1" d="M815,497h-18c0,0-2.5,3.1,0,3.4c2.5,0.3,28.3,0,28.3,0s0.9,0,1-0.9c0.1-0.9,1.3-2.3-1.8-2.5
	C821.5,496.9,815,497,815,497z"/>
<image style="display:none;overflow:visible;" width="2751" height="1495" id="lfg" xlink:href="lfg.png"  transform="matrix(0.2074 0 0 0.2218 168.9222 99.3138)">
</image>
<image style="display:none;overflow:visible;" width="2762" height="1595" id="collab" xlink:href="collab.jpg"  transform="matrix(0.2075 0 0 0.2075 167.6246 99.2257)">
</image>
<image style="overflow:visible;" width="2758" height="1606" id="saku" xlink:href="saku.png"  transform="matrix(0.2075 0 0 0.2075 168.0396 98.0845)">
</image>
</svg>
