<?xml version="1.0" encoding="utf-8"?>
<!-- Generator: Adobe Illustrator 21.0.0, SVG Export Plug-In . SVG Version: 6.00 Build 0)  -->
<svg version="1.1" id="Layer_1" xmlns="http://www.w3.org/2000/svg" xmlns:xlink="http://www.w3.org/1999/xlink" x="0px" y="0px"
	 viewBox="0 0 282.7 81.5" style="enable-background:new 0 0 282.7 81.5;" xml:space="preserve">
<g>
	<g>
		<path d="M41.1,28.3c1.1-0.1,1.6-0.1,2.7-0.2c-0.2,4.7-0.4,7-0.6,11.6c4.1-0.4,6.2-0.6,10.3-0.9c0.2-4.6,0.3-6.9,0.5-11.5
			c1.1-0.1,1.6-0.1,2.7-0.2c-0.5,11.1-0.8,16.6-1.3,27.6c-1.1,0.1-1.7,0.2-2.8,0.3c0.2-5.2,0.4-7.8,0.6-13c-4.1,0.4-6.2,0.6-10.3,1
			c-0.3,5.3-0.4,7.9-0.7,13.2c-1.1,0.1-1.7,0.2-2.8,0.3C40.1,47.1,40.6,37.7,41.1,28.3z"/>
		<path d="M61.3,26.8c5.8-0.4,8.7-0.5,14.4-0.8c0,1.3-0.1,2-0.1,3.3c-4.7,0.3-7.1,0.4-11.8,0.7c-0.1,3.3-0.2,5-0.3,8.3
			c4.4-0.3,6.6-0.5,11-0.8c0,1.2-0.1,1.9-0.1,3.1c-4.4,0.3-6.6,0.5-11,0.8c-0.2,3.7-0.2,5.6-0.4,9.3c4.9-0.5,7.3-0.7,12.2-1.1
			c0,1.3-0.1,1.9-0.1,3.2c-5.9,0.5-8.9,0.8-14.8,1.4C60.6,43.3,60.8,37.8,61.3,26.8z"/>
		<path d="M79.5,25.8c1.1,0,1.6-0.1,2.7-0.1c-0.3,9.4-0.5,14-0.8,23.4c4-0.3,6.1-0.5,10.1-0.7c0,1.2-0.1,1.9-0.1,3.1
			c-5.1,0.4-7.7,0.6-12.9,1C79,41.8,79.2,36.5,79.5,25.8z"/>
		<path d="M94.9,25.3c1.1,0,1.6,0,2.7-0.1c-0.2,9.1-0.3,13.7-0.6,22.9c4-0.2,6.1-0.4,10.1-0.6c0,1.2,0,1.8-0.1,3
			c-5.1,0.3-7.7,0.5-12.9,0.8C94.5,40.9,94.7,35.7,94.9,25.3z"/>
		<path d="M126.7,28.4c1.3,2.2,2,5,1.9,8.4c0,3.7-0.8,6.8-2.3,9.3c-1.8,2.9-4.4,4.5-7.7,4.6c-3.1,0.1-5.6-1-7.3-3.5
			c-1.6-2.3-2.3-5.5-2.2-9.4c0.1-3.4,0.8-6.4,2.2-8.9c1.8-3.2,4.3-4.7,7.7-4.8C122.5,24.1,125.1,25.6,126.7,28.4z M124.2,44.2
			c1.1-2.2,1.6-4.6,1.7-7.4c0-2.9-0.6-5.3-1.8-7c-1.2-1.8-2.9-2.7-5-2.6c-2.1,0-3.8,0.9-5.1,2.8c-1.3,1.8-2,4.5-2.1,8
			c0,2.8,0.5,5.2,1.6,7c1.1,1.9,2.9,2.7,5.5,2.6C121.4,47.5,123.1,46.4,124.2,44.2z"/>
		<path d="M141,25c1.5,7.9,2.3,11.8,3.9,19.6c1.8-7.8,2.7-11.7,4.4-19.4c1.2,0,1.7,0,2.9,0.1c1.9,7.8,2.8,11.6,4.8,19.3
			c1.4-7.7,2.1-11.5,3.5-19.1c1.2,0,1.8,0.1,3,0.1c-1.9,9.2-2.9,13.9-4.8,23.3c-1.2,0-1.7,0-2.9,0c-2-7.8-3-11.8-4.9-19.7
			c-1.8,7.9-2.7,11.8-4.5,19.8c-1.2,0-1.7,0-2.9,0.1c-2.2-9.6-3.2-14.4-5.3-24.2C139.2,24.9,139.8,25,141,25z"/>
		<path d="M182.3,29.7c1.4,2.1,2.2,4.6,2.3,7.7c0.1,3.4-0.5,6.1-2,8.3c-1.7,2.6-4.2,3.9-7.6,3.8c-3.1,0-5.7-1.2-7.4-3.6
			c-1.7-2.2-2.5-5.2-2.6-8.7c-0.1-3.1,0.5-5.8,1.8-8c1.7-2.8,4.1-4.1,7.5-3.9C177.9,25.6,180.5,27.1,182.3,29.7z M180.4,44.1
			c1-1.9,1.5-4.1,1.4-6.6c-0.1-2.7-0.8-4.8-2.1-6.5s-3-2.6-5.1-2.7c-2.1-0.1-3.7,0.6-5,2.2c-1.3,1.6-1.9,4-1.8,7.2
			c0.1,2.6,0.7,4.7,1.9,6.5c1.2,1.8,3,2.7,5.6,2.7C177.7,46.9,179.4,46,180.4,44.1z"/>
		<path d="M187.7,26.8c3.6,0.2,5.4,0.4,9,0.6c1.5,0.1,2.7,0.4,3.7,1c1.9,1.1,2.9,2.8,3,5.3c0.1,1.3-0.1,2.4-0.6,3.2
			c-0.4,0.8-1.1,1.4-2,1.9c0.8,0.4,1.4,0.9,1.8,1.5c0.4,0.6,0.7,1.5,0.8,2.8c0.1,1.2,0.2,1.8,0.3,2.9c0.1,0.8,0.2,1.5,0.3,1.9
			c0.2,0.7,0.5,1.2,1,1.4c0,0.2,0,0.3,0,0.5c-1.3-0.1-2-0.1-3.4-0.1c-0.1-0.2-0.2-0.4-0.3-0.7c-0.1-0.3-0.1-0.9-0.2-1.7
			c-0.1-1.5-0.2-2.2-0.4-3.7c-0.1-1.4-0.7-2.4-1.6-2.9c-0.5-0.3-1.3-0.5-2.4-0.5c-2.4-0.1-3.6-0.2-6-0.3c0.2,3.8,0.3,5.7,0.4,9.5
			c-1.1,0-1.6,0-2.7-0.1C188.3,40.2,188.1,35.8,187.7,26.8z M196.9,37.5c1.2,0.1,2.2-0.2,2.9-0.7c0.7-0.5,1-1.5,0.9-2.9
			c-0.1-1.6-0.6-2.7-1.7-3.3c-0.6-0.3-1.3-0.5-2.2-0.6c-2.6-0.2-3.8-0.3-6.4-0.4c0.1,3,0.2,4.6,0.3,7.6
			C193.3,37.3,194.5,37.4,196.9,37.5z"/>
		<path d="M207.3,28.3c1.1,0.1,1.6,0.1,2.7,0.2c0.5,7.6,0.7,11.3,1.2,18.9c4.1,0.2,6.1,0.3,10.1,0.6c0.1,1,0.1,1.5,0.2,2.5
			c-5.2-0.3-7.7-0.4-12.9-0.6C208.1,41.2,207.9,36.9,207.3,28.3z"/>
		<path d="M222.8,29.7c3.2,0.3,4.8,0.5,7.9,0.8c2.7,0.3,4.9,1.5,6.5,3.7c1.5,1.9,2.4,4.3,2.7,7.1c0.2,2.2,0,4.1-0.6,5.8
			c-1.1,3-3.4,4.4-6.8,4.1c-3.2-0.2-4.8-0.3-8.1-0.5C223.8,42.3,223.5,38.1,222.8,29.7z M231.8,48.7c0.9,0.1,1.6,0,2.2-0.1
			c1-0.3,1.8-0.9,2.4-1.9c0.5-0.8,0.7-1.8,0.8-3.1c0.1-0.8,0.1-1.5,0-2.1c-0.2-2.5-0.9-4.5-2-6.1c-1.1-1.5-2.7-2.4-4.8-2.6
			c-1.9-0.2-2.8-0.3-4.7-0.5c0.5,6.4,0.8,9.6,1.3,16C229,48.5,229.9,48.6,231.8,48.7z"/>
		<path d="M243.7,32c1.1,0.1,1.6,0.2,2.7,0.3c0.3,2.6,0.4,4,0.7,6.6c0.1,3.4,0.2,5.2,0.3,8.6c-0.6-0.1-0.8-0.1-1.4-0.1
			c-0.7-3.5-1-5.3-1.6-8.8C244.1,36,244,34.6,243.7,32z M245.5,49.3c1.1,0.1,1.6,0.1,2.7,0.2c0.1,1.1,0.2,1.7,0.3,2.8
			c-1.1-0.1-1.6-0.1-2.7-0.2C245.7,51,245.7,50.4,245.5,49.3z"/>
	</g>
</g>
</svg>
