<?xml version="1.0" encoding="utf-8"?>
<!-- Generator: Adobe Illustrator 21.0.0, SVG Export Plug-In . SVG Version: 6.00 Build 0)  -->
<svg version="1.1" id="Layer_1" xmlns="http://www.w3.org/2000/svg" xmlns:xlink="http://www.w3.org/1999/xlink" x="0px" y="0px"
	 viewBox="0 0 976.1 1332.8" style="enable-background:new 0 0 976.1 1332.8;" xml:space="preserve">
<style type="text/css">
	.st0{fill:#8A8A8E;}
	.st1{fill:#EAEAEA;}
	.st2{fill:#FFFFFF;}
	.st3{fill:#FAAE31;}
	.st4{fill:#231F20;}
	.st5{opacity:0.69;fill:#231F20;}
	.st6{fill:#C3E7F2;}
	.st7{fill:#DE98C2;}
	.st8{fill:#8DCC95;}
	.st9{fill:#EFE93D;}
	.st10{fill:#4E74B8;}
	.st11{fill:#9A7DB8;}
	.st12{fill:none;}
	.st13{display:none;}
	.st14{display:inline;fill:#FFFFFF;}
	.st15{font-family:'Arial-Black';}
	.st16{font-size:75.5816px;}
	.st17{letter-spacing:-11;}
	.st18{font-size:76.3374px;}
	.st19{font-family:'Cornerstone';}
	.st20{font-size:110px;}
	.st21{letter-spacing:17;}
	.st22{display:inline;}
	.st23{font-size:90px;}
	.st24{letter-spacing:1;}
	.st25{opacity:0.41;fill:#F6F5F6;}
	.st26{letter-spacing:4;}
</style>
<path class="st0" d="M192.5,168.2c0,0,15.4-65.7,67.8-68.5c52.5-2.8,324.5-3.5,324.5-3.5l4.2-7h90.2l4.2,7c0,0,95.8,15.4,95.1,81.8
	c-0.7,66.4,2.1,987.1,0.5,1007.1s-19.2,81.7-76.8,83.3c-57.6,1.6-425.1,0-425.1,0s-83.6-10.4-84.6-76c-1-65.6,0-706.9,0-706.9
	l-5.7-0.9l-1.5-3l1.5-36.4l0.9-2.7l4.6-0.3v-60.1h-5.8l0.6-42.2l5.2-0.6l-0.3-61.9h-4.3l-2.4-4.3v-49.5l2.4-2.4l4.6,0.3
	C192.3,221.2,190.2,176.1,192.5,168.2z"/>
<path id="inner_screen" class="st1" d="M215.2,225c0,0,1.5-3.1,4.5-3.1c3,0,530.9,0.5,530.9,0.5s2.7,0,3,4.4
	c0.2,4.4-0.1,892.7-0.1,892.7s-1,3.8-4.2,3.8s-528.4,0-528.4,0s-4.5-0.5-4.7-4S215.2,225,215.2,225z"/>
<circle class="st2" cx="485.3" cy="1190.9" r="49.6"/>
<circle class="st3" cx="481.5" cy="452.7" r="171.6"/>
<g>
	<path class="st4" d="M380.2,493l189.4-104.8c5.8-3.2,13.1-1.1,16.3,4.7l49.1,88.8c3.2,5.8,1.1,13.1-4.7,16.3L440.9,602.8
		c-5.8,3.2-13.1,1.1-16.3-4.7l-49.1-88.8C372.3,503.5,374.4,496.2,380.2,493z"/>
	<path class="st5" d="M357.6,481.8L546.9,377c5.8-3.2,13.1-1.1,16.3,4.7l49.1,88.8c3.2,5.8,1.1,13.1-4.7,16.3L418.4,591.6
		c-5.8,3.2-13.1,1.1-16.3-4.7l-49.1-88.8C349.7,492.3,351.8,485,357.6,481.8z"/>
	<path class="st6" d="M398.9,496.1l163-90.2c5.8-3.2,13.1-1.1,16.3,4.7l38.6,69.7c3.2,5.8,1.1,13.1-4.7,16.3l-163,90.2
		c-5.8,3.2-13.1,1.1-16.3-4.7l-38.6-69.7C391,506.6,393.1,499.3,398.9,496.1z"/>
	
		<rect x="556" y="412.5" transform="matrix(0.8749 -0.4842 0.4842 0.8749 -149.4892 335.8748)" class="st7" width="38.9" height="89.6"/>
	
		<rect x="419.5" y="494.7" transform="matrix(0.8749 -0.4842 0.4842 0.8749 -207.7684 274.4958)" class="st8" width="16" height="89.6"/>
	
		<rect x="512.6" y="437.3" transform="matrix(0.8749 -0.4842 0.4842 0.8749 -166.8255 318.1927)" class="st9" width="40" height="89.6"/>
	
		<rect x="474.4" y="460.9" transform="matrix(0.8749 -0.4842 0.4842 0.8749 -183.6425 300.4369)" class="st10" width="30.8" height="89.6"/>
	
		<rect x="445.6" y="479.2" transform="matrix(0.8749 -0.4842 0.4842 0.8749 -196.574 286.7835)" class="st11" width="22.5" height="89.6"/>
</g>
<rect x="176.4" y="672.7" class="st12" width="626.9" height="290.7"/>
<text transform="matrix(1 0 0 1 176.3575 751.8381)" class="st13"><tspan x="0" y="0" class="st14 st15 st16 st17">							</tspan><tspan x="95.2" y="9.1" class="st14 st15 st18 st17">	</tspan><tspan x="108.8" y="9.1" class="st14 st19 st20 st21">PIXEL</tspan><tspan x="0" y="98.2" class="st22 st19 st23 st24"> WEARABLES</tspan></text>
<path id="screen_shine" class="st25" d="M570.3,404.6c0,0-126.4,184.6-130.6,182.9c-4.2-1.7-3.9,0.7-10.6-11.4
	c-6.7-12-35.8-65.8-35.8-65.8s-3.2-9.5,5.2-14.1c8.3-4.6,164-90.8,164-90.8S564.9,403.9,570.3,404.6z"/>
<rect x="343.4" y="679.2" class="st12" width="453.8" height="159"/>
<text transform="matrix(1 0 0 1 343.4486 758.3308)" class="st2 st19 st20 st26">PIXEL</text>
<rect x="243" y="799" class="st12" width="654.7" height="143.5"/>
<text transform="matrix(1 0 0 1 243.0097 863.7271)" class="st19 st23">WEarables</text>
</svg>
