<?xml version="1.0" encoding="utf-8"?>
<!-- Generator: Adobe Illustrator 19.1.0, SVG Export Plug-In . SVG Version: 6.00 Build 0)  -->
<svg version="1.1" xmlns="http://www.w3.org/2000/svg" xmlns:xlink="http://www.w3.org/1999/xlink" x="0px" y="0px"
	 viewBox="0 0 2000 792" style="enable-background:new 0 0 2000 792;" xml:space="preserve">
<style type="text/css">
	.st0{fill:#695AA7;}
	.st1{fill:#4952A3;}
</style>
<g id="Layer_2">
</g>
<g id="Layer_1">
	<path class="st0" d="M1405.8,129.4c0,0-18.3-106.9,36.1-85.9c13.5-17.5,35.7-37.4,85.6,36.8c17.4-6.4,68.5-32.5,83.8-15.7
		s9,22.4,9,22.4s20.6,6.2,22.2,14.6s-6.3,65.4-32.4,80.1c10,6.8,52.5,41.7,39.8,74.6c-12.6,12.3-18.4,15.9-18.4,15.9
		s2.2,16-2.4,20.9c-4.7,4.9-50.5,27.6-87.3-2.2c-5.6,19.2-35.8,68.7-55.5,61.6s-22.1-12.8-22.1-12.8l-20.9,3.6
		c0,0-44.7-35.8-26-79.6c-14.6-3.2-95.8-21.8-77.5-52.8c4-9.5,4-9.5,4-9.5l-10.2-20.7c0,0,9.4-26.2,30.5-35.3
		C1385.1,136.5,1405.8,129.4,1405.8,129.4z"/>
	<path class="st1" d="M381.3,391.9c0,0-69-83.6-11.4-92.5c3-21.9,12.4-50.2,92.6-10.6c11.9-14.2,43.3-62.2,64.9-55.2
		c21.6,7,18.9,14.9,18.9,14.9s21-4.9,26.5,1.6c5.6,6.5,27.1,59.9,11.7,85.6c12.1,1,66.3,10.1,71.6,45c-4.8,16.9-8.1,22.9-8.1,22.9
		s9.9,12.8,8.3,19.4s-30.1,49.1-76.9,41.5c4.7,19.4,3.1,77.4-17.6,81.1c-20.7,3.7-25.5-0.1-25.5-0.1L520,559.1
		c0,0-56.5-8.9-62.1-56.1c-14.2,4.5-94,28.7-93.5-7.3c-1.2-10.2-1.2-10.2-1.2-10.2l-19.1-12.9c0,0-4.8-27.4,8.9-45.8
		C366.8,408.4,381.3,391.9,381.3,391.9z"/>
</g>
</svg>
